<svg width="20" height="20" viewBox="0 0 20 20" fill="none" xmlns="http://www.w3.org/2000/svg">
<g clip-path="url(#clip0_48159_22)">
<path d="M4.56762 1.66012C4.49383 1.5652 4.40068 1.48706 4.29437 1.43091C4.18806 1.37475 4.07102 1.34185 3.95102 1.3344C3.83102 1.32695 3.7108 1.34512 3.59836 1.38771C3.48593 1.43029 3.38383 1.4963 3.29887 1.58137L2.00637 2.87512C1.40262 3.48012 1.18012 4.33638 1.44387 5.08763C2.53854 8.19711 4.31924 11.0202 6.65387 13.3476C8.98128 15.6822 11.8044 17.4629 14.9139 18.5576C15.6651 18.8214 16.5214 18.5989 17.1264 17.9951L18.4189 16.7026C18.5039 16.6177 18.57 16.5156 18.6125 16.4031C18.6551 16.2907 18.6733 16.1705 18.6658 16.0505C18.6584 15.9305 18.6255 15.8134 18.5693 15.7071C18.5132 15.6008 18.435 15.5077 18.3401 15.4339L15.4564 13.1914C15.355 13.1127 15.237 13.0581 15.1114 13.0317C14.9858 13.0053 14.8559 13.0077 14.7314 13.0389L11.9939 13.7226C11.6285 13.814 11.2456 13.8091 10.8827 13.7086C10.5197 13.608 10.189 13.4152 9.92262 13.1489L6.85262 10.0776C6.58608 9.81142 6.39303 9.48073 6.29226 9.11775C6.19149 8.75477 6.18645 8.37188 6.27762 8.00638L6.96262 5.26888C6.99375 5.14437 6.9962 5.01442 6.96979 4.88883C6.94337 4.76324 6.88877 4.64529 6.81012 4.54387L4.56762 1.66012ZM2.35512 0.638875C2.57386 0.420061 2.83665 0.250288 3.12604 0.140826C3.41543 0.0313647 3.7248 -0.0152795 4.0336 0.0039909C4.34239 0.0232613 4.64356 0.108005 4.9171 0.252596C5.19063 0.397186 5.43028 0.598314 5.62012 0.842625L7.86262 3.72512C8.27387 4.25387 8.41887 4.94262 8.25637 5.59262L7.57262 8.33012C7.53727 8.47191 7.53918 8.62043 7.57816 8.76126C7.61715 8.90209 7.69189 9.03045 7.79512 9.13388L10.8664 12.2051C10.9699 12.3086 11.0985 12.3834 11.2396 12.4224C11.3806 12.4614 11.5294 12.4632 11.6714 12.4276L14.4076 11.7439C14.7284 11.6637 15.0632 11.6574 15.3867 11.7257C15.7102 11.7939 16.014 11.9347 16.2751 12.1376L19.1576 14.3801C20.1939 15.1864 20.2889 16.7176 19.3614 17.6439L18.0689 18.9364C17.1439 19.8614 15.7614 20.2676 14.4726 19.8139C11.1741 18.6533 8.17921 16.7649 5.71012 14.2889C3.23423 11.8201 1.34588 8.8257 0.185119 5.52762C-0.267381 4.24012 0.138869 2.85637 1.06387 1.93137L2.35637 0.638875H2.35512Z" fill="black"/>
</g>
<defs>
<clipPath id="clip0_48159_22">
<rect width="20" height="20" fill="white"/>
</clipPath>
</defs>
</svg>
