<svg width="20" height="20" viewBox="0 0 20 20" fill="none" xmlns="http://www.w3.org/2000/svg">
<g clip-path="url(#clip0_48159_24)">
<path fill-rule="evenodd" clip-rule="evenodd" d="M2.22222 0C1.63285 0 1.06762 0.234126 0.650874 0.650874C0.234126 1.06762 0 1.63285 0 2.22222V17.7778C0 18.3671 0.234126 18.9324 0.650874 19.3491C1.06762 19.7659 1.63285 20 2.22222 20H8.88889C9.47826 20 10.0435 19.7659 10.4602 19.3491C10.877 18.9324 11.1111 18.3671 11.1111 17.7778V11.1111H17.7778C18.3671 11.1111 18.9324 10.877 19.3491 10.4602C19.7659 10.0435 20 9.47826 20 8.88889V2.22222C20 1.63285 19.7659 1.06762 19.3491 0.650874C18.9324 0.234126 18.3671 0 17.7778 0H2.22222ZM11.1111 8.88889H17.7778V2.22222H11.1111V8.88889ZM2.22222 11.1111V17.7778H8.88889V11.1111H2.22222ZM2.22222 8.88889H8.88889V2.22222H2.22222V8.88889Z" fill="black"/>
</g>
<defs>
<clipPath id="clip0_48159_24">
<rect width="20" height="20" fill="white"/>
</clipPath>
</defs>
</svg>
