<svg width="20" height="18" viewBox="0 0 20 18" fill="none" xmlns="http://www.w3.org/2000/svg">
<g clip-path="url(#clip0_48159_17)">
<path d="M19.8866 17.417C18.4236 14.978 16.169 13.2292 13.5379 12.4001C14.8394 11.653 15.8506 10.5146 16.4161 9.15975C16.9817 7.80486 17.0704 6.30841 16.6686 4.90021C16.2668 3.492 15.3968 2.24991 14.1921 1.36467C12.9874 0.479432 11.5146 0 10 0C8.48537 0 7.01262 0.479432 5.80792 1.36467C4.60321 2.24991 3.73316 3.492 3.33138 4.90021C2.9296 6.30841 3.0183 7.80486 3.58387 9.15975C4.14944 10.5146 5.1606 11.653 6.46207 12.4001C3.83095 13.2283 1.5764 14.9771 0.113387 17.417C0.0597359 17.5014 0.0241494 17.5952 0.00872733 17.6931C-0.00669474 17.7909 -0.00164002 17.8907 0.0235932 17.9866C0.0488265 18.0825 0.0937273 18.1726 0.155646 18.2515C0.217565 18.3304 0.295248 18.3966 0.384111 18.4461C0.472975 18.4956 0.571219 18.5274 0.673047 18.5397C0.774875 18.552 0.878224 18.5445 0.976997 18.5177C1.07577 18.4908 1.16797 18.4452 1.24815 18.3834C1.32832 18.3216 1.39486 18.245 1.44383 18.158C3.25363 15.142 6.45246 13.3413 10 13.3413C13.5475 13.3413 16.7464 15.142 18.5562 18.158C18.6051 18.245 18.6717 18.3216 18.7519 18.3834C18.832 18.4452 18.9242 18.4908 19.023 18.5177C19.1218 18.5445 19.2251 18.552 19.327 18.5397C19.4288 18.5274 19.527 18.4956 19.6159 18.4461C19.7048 18.3966 19.7824 18.3304 19.8444 18.2515C19.9063 18.1726 19.9512 18.0825 19.9764 17.9866C20.0016 17.8907 20.0067 17.7909 19.9913 17.6931C19.9758 17.5952 19.9403 17.5014 19.8866 17.417ZM4.62058 6.67189C4.62058 5.64594 4.93607 4.64304 5.52717 3.78999C6.11827 2.93694 6.95842 2.27208 7.94138 1.87946C8.92434 1.48685 10.006 1.38412 11.0495 1.58428C12.093 1.78443 13.0515 2.27847 13.8038 3.00393C14.5562 3.72938 15.0685 4.65367 15.2761 5.6599C15.4836 6.66614 15.3771 7.70913 14.9699 8.65698C14.5628 9.60484 13.8733 10.415 12.9886 10.985C12.104 11.555 11.0639 11.8592 10 11.8592C8.57376 11.8577 7.20636 11.3107 6.19786 10.3382C5.18935 9.36575 4.6221 8.0472 4.62058 6.67189Z" fill="black"/>
</g>
<defs>
<clipPath id="clip0_48159_17">
<rect width="20" height="18" fill="white"/>
</clipPath>
</defs>
</svg>
