<?xml version="1.0" encoding="UTF-8"?>
<svg xmlns="http://www.w3.org/2000/svg" xmlns:xlink="http://www.w3.org/1999/xlink" width="20px" height="px" viewBox="0 0 20 20" version="1.1">
<g id="surface1">
<path style=" stroke:none;fill-rule:nonzero;fill:rgb(65.490196%,35.294118%,96.078431%);fill-opacity:0.996078;" d="M 0.808594 9.710938 C 4.230469 1.699219 15.261719 2.050781 19.140625 9.410156 C 19.320312 9.75 19.328125 10.089844 19.160156 10.441406 C 15.351562 18.21875 4.988281 18.011719 0.859375 10.648438 C 0.691406 10.351562 0.679688 10.039062 0.808594 9.710938 Z M 2.261719 10.519531 C 6.179688 16.578125 14.03125 16.519531 17.828125 10.398438 C 17.980469 10.160156 17.980469 9.839844 17.828125 9.601562 C 13.949219 3.488281 6.328125 3.410156 2.269531 9.421875 C 2.050781 9.75 2.039062 10.191406 2.261719 10.519531 Z M 2.261719 10.519531 "/>
<path style=" stroke:none;fill-rule:nonzero;fill:rgb(65.490196%,35.294118%,96.078431%);fill-opacity:0.996078;" d="M 13.730469 10 C 13.730469 12.058594 12.058594 13.730469 10 13.730469 C 7.941406 13.730469 6.269531 12.058594 6.269531 10 C 6.269531 7.941406 7.941406 6.269531 10 6.269531 C 12.058594 6.269531 13.730469 7.941406 13.730469 10 Z M 12.539062 9.988281 C 12.539062 8.589844 11.398438 7.449219 10 7.449219 C 8.601562 7.449219 7.460938 8.589844 7.460938 9.988281 C 7.460938 11.390625 8.601562 12.53125 10 12.53125 C 11.398438 12.53125 12.539062 11.390625 12.539062 9.988281 Z M 12.539062 9.988281 "/>
</g>
</svg>
