<svg width="20" height="15" viewBox="0 0 20 15" fill="none" xmlns="http://www.w3.org/2000/svg">
<path fill-rule="evenodd" clip-rule="evenodd" d="M0 0.75C0 0.335786 0.344396 0 0.769231 0H19.2308C19.6556 0 20 0.335786 20 0.75V13.5C20 13.8978 19.8379 14.2794 19.5494 14.5607C19.2609 14.842 18.8696 15 18.4615 15H1.53846C1.13044 15 0.739124 14.842 0.450605 14.5607C0.162087 14.2794 0 13.8978 0 13.5V0.75ZM1.53846 1.5V13.5H18.4615V1.5H1.53846Z" fill="white"/>
<path fill-rule="evenodd" clip-rule="evenodd" d="M0.202194 0.249447C0.489265 -0.0637213 0.975855 -0.0848774 1.28902 0.202194L10 8.18726L18.711 0.202194C19.0241 -0.0848774 19.5107 -0.0637213 19.7978 0.249447C20.0849 0.562615 20.0637 1.04921 19.7506 1.33628L10.5198 9.79781C10.2257 10.0674 9.7743 10.0674 9.48021 9.79781L0.249447 1.33628C-0.0637213 1.04921 -0.0848774 0.562615 0.202194 0.249447Z" fill="white"/>
</svg>
