<?xml version="1.0" encoding="UTF-8" standalone="no"?>
<!DOCTYPE svg PUBLIC "-//W3C//DTD SVG 1.1//EN" "http://www.w3.org/Graphics/SVG/1.1/DTD/svg11.dtd">
<svg xmlns="http://www.w3.org/2000/svg" version="1.1" viewBox="0.00 0.00 24.00 24.00">
<path fill="#f5f0ef" d="
  M 15.68 6.03
  C 15.68 6.43 15.36 6.75 14.96 6.75
  L 3.82 6.75
  C 3.42 6.75 3.10 6.43 3.10 6.03
  L 3.10 5.97
  C 3.10 5.57 3.42 5.25 3.82 5.25
  L 14.96 5.25
  C 15.36 5.25 15.68 5.57 15.68 5.97
  L 15.68 6.03
  Z"
/>
<path fill="#f5f0ef" d="
  M 20.8798 12.1155
  C 20.88 12.47 20.59 12.77 20.2287 12.7644
  L 3.7487 12.7356
  C 3.39 12.73 3.10 12.44 3.0998 12.0845
  L 3.1002 11.8845
  C 3.10 11.53 3.39 11.23 3.7513 11.2356
  L 20.2313 11.2644
  C 20.59 11.27 20.88 11.56 20.8802 11.9155
  L 20.8798 12.1155
  Z"
/>
<path fill="#f5f0ef" d="
  M 15.67 18.02
  C 15.67 18.42 15.35 18.74 14.95 18.74
  L 3.81 18.74
  C 3.41 18.74 3.09 18.42 3.09 18.02
  L 3.09 17.96
  C 3.09 17.56 3.41 17.24 3.81 17.24
  L 14.95 17.24
  C 15.35 17.24 15.67 17.56 15.67 17.96
  L 15.67 18.02
  Z"
/>
</svg>
