<?xml version="1.0" encoding="UTF-8"?>
<svg xmlns="http://www.w3.org/2000/svg" xmlns:xlink="http://www.w3.org/1999/xlink" width="20px" height="px" viewBox="0 0 20 20" version="1.1">
<g id="surface1">
<path style=" stroke:none;fill-rule:nonzero;fill:rgb(98.039216%,98.039216%,97.647059%);fill-opacity:0.996078;" d="M 8.871094 13.289062 C 7.160156 11.140625 5.300781 10.039062 3.28125 9.988281 C 2.230469 9.96875 1.71875 8.699219 2.460938 7.960938 L 5.039062 5.351562 C 5.261719 5.128906 5.570312 5 5.878906 5 L 10.019531 5 C 10.449219 5 10.800781 4.839844 11.089844 4.519531 C 12.410156 3.050781 14.128906 2.261719 16.238281 2.160156 C 17.070312 2.121094 17.761719 2.769531 17.789062 3.601562 C 17.859375 5.691406 17.050781 7.5 15.339844 9.03125 C 15.121094 9.21875 15 9.5 15 9.800781 L 15 13.851562 C 15 14.339844 14.828125 14.761719 14.480469 15.109375 L 11.960938 17.648438 C 11.390625 18.21875 10.410156 17.96875 10.199219 17.191406 C 9.800781 15.761719 9.820312 14.5 8.871094 13.289062 Z M 7.539062 10.210938 L 9.789062 12.460938 C 9.910156 12.578125 10.101562 12.570312 10.21875 12.460938 L 14.261719 8.410156 C 16.199219 6.460938 17.199219 4.308594 16.488281 3.601562 L 16.378906 3.488281 C 15.671875 2.78125 13.519531 3.789062 11.578125 5.738281 L 7.539062 9.789062 C 7.421875 9.910156 7.421875 10.101562 7.539062 10.210938 Z M 8.441406 7.019531 C 8.601562 6.988281 8.730469 6.921875 8.839844 6.800781 C 9.089844 6.519531 9.03125 6.339844 8.660156 6.269531 C 6.410156 5.828125 4.769531 6.53125 3.75 8.359375 C 3.621094 8.589844 3.679688 8.75 3.910156 8.851562 C 5.710938 9.640625 7.121094 9.101562 8.140625 7.238281 C 8.210938 7.121094 8.308594 7.050781 8.441406 7.019531 Z M 13.601562 14.53125 C 13.660156 14.460938 13.699219 14.378906 13.699219 14.289062 L 13.789062 11.511719 C 13.800781 11.199219 13.429688 11.039062 13.210938 11.261719 L 10.890625 13.539062 C 10.808594 13.621094 10.78125 13.71875 10.789062 13.828125 L 11.089844 16.128906 C 11.128906 16.398438 11.460938 16.519531 11.660156 16.328125 Z M 13.601562 14.53125 "/>
<path style=" stroke:none;fill-rule:nonzero;fill:rgb(98.039216%,98.039216%,97.647059%);fill-opacity:0.996078;" d="M 4.140625 16.289062 C 5.390625 16.101562 6.359375 15.339844 7.050781 14.011719 C 7.128906 13.859375 7.320312 13.820312 7.460938 13.921875 L 7.730469 14.121094 C 7.96875 14.300781 8.039062 14.640625 7.878906 14.898438 C 6.769531 16.730469 5.070312 17.628906 2.769531 17.589844 C 2.46875 17.578125 2.230469 17.320312 2.261719 17.019531 C 2.421875 15.378906 3.511719 12.320312 5.46875 12.140625 C 6.46875 12.050781 6.578125 12.320312 5.808594 12.949219 C 4.738281 13.839844 4.03125 14.769531 3.679688 15.71875 C 3.511719 16.171875 3.671875 16.359375 4.140625 16.289062 Z M 4.140625 16.289062 "/>
</g>
</svg>
