<?xml version="1.0" encoding="UTF-8"?>
<svg xmlns="http://www.w3.org/2000/svg" xmlns:xlink="http://www.w3.org/1999/xlink" width="20px" height="px" viewBox="0 0 20 20" version="1.1">
<g id="surface1">
<path style=" stroke:none;fill-rule:nonzero;fill:rgb(97.647059%,98.039216%,98.039216%);fill-opacity:1;" d="M 6.421875 11.878906 C 3.089844 8.898438 3.960938 3.921875 8.070312 2.300781 C 14.089844 -0.078125 18.488281 8 13.230469 12.148438 C 13.039062 12.300781 13.101562 12.601562 13.328125 12.660156 C 15.460938 13.261719 17.089844 14.671875 18.210938 16.890625 C 18.261719 16.980469 18.238281 17.058594 18.160156 17.121094 L 17.71875 17.488281 C 17.53125 17.640625 17.378906 17.621094 17.25 17.410156 C 16.25 15.789062 15.019531 14.640625 13.570312 13.96875 C 9.449219 12.039062 5.789062 13.199219 2.601562 17.449219 C 2.5 17.578125 2.378906 17.601562 2.238281 17.5 L 2.03125 17.359375 C 1.789062 17.191406 1.710938 16.859375 1.859375 16.601562 C 2.890625 14.828125 4.371094 13.519531 6.300781 12.660156 C 6.75 12.46875 6.789062 12.210938 6.421875 11.878906 Z M 14.390625 7.5 C 14.390625 5.078125 12.421875 3.109375 10 3.109375 C 7.578125 3.109375 5.609375 5.078125 5.609375 7.5 C 5.609375 9.921875 7.578125 11.890625 10 11.890625 C 12.421875 11.890625 14.390625 9.921875 14.390625 7.5 Z M 14.390625 7.5 "/>
</g>
</svg>
